<?xml version="1.0" encoding="UTF-8"?><svg id="b" xmlns="http://www.w3.org/2000/svg" width="137.52" height="137.52" viewBox="0 0 137.52 137.52"><g id="c"><circle id="d" cx="68.76" cy="68.76" r="68.76" style="fill:#ff4a4a;"/><path d="M56.25,101.93c.6-.05,1.02.15,1.27.62.25.46.18.97-.21,1.52-1.8,2.35-3.62,3.92-5.45,4.71-1.83.79-3.54.93-5.12.41-1.59-.52-3.27-1.3-5.04-2.34-1.78-1.04-3.46-2.12-5.04-3.24-1.59-1.12-3.36-1.97-5.33-2.54-1.97-.57-3.85-.59-5.66-.04-.55.16-.96-.03-1.23-.57-.27-.55-.19-1.07.25-1.56,2.08-2.46,4.15-4.21,6.23-5.25-3.88-2.35-6.68-6.01-8.41-10.99-1.72-4.97-2.01-10.8-.86-17.47,1.64-9.18,5.36-16.67,11.15-22.47s12.05-8.69,18.78-8.69,11.97,2.91,15.74,8.73c3.77,5.82,4.84,13.3,3.2,22.43-1.42,8.15-4.5,14.96-9.23,20.46-4.73,5.49-10.1,8.87-16.11,10.13.6.44,1.57,1.16,2.91,2.17,1.34,1.01,2.35,1.75,3.03,2.21.68.46,1.52.9,2.5,1.31s1.86.56,2.62.45ZM40.1,50.39c-3.28,3.69-5.47,8.62-6.56,14.8-1.09,6.18-.64,11.1,1.35,14.76,1.99,3.66,4.55,5.47,7.67,5.41,3.12,0,6.3-1.84,9.55-5.53,3.25-3.69,5.42-8.57,6.52-14.64,1.09-6.12.66-11.03-1.31-14.72-1.97-3.69-4.51-5.56-7.63-5.62-3.12,0-6.31,1.85-9.59,5.54Z"/><path d="M108.57,91.92c.66.66.9,1.31.74,1.97-.16.66-.71.98-1.64.98h-10.33c-.55,0-.93-.49-1.15-1.48l-5.17-22.22h-6.48l-2.79,15.99c-.38,2.19-.11,3.99.82,5.41.33.44.33.93,0,1.48-.33.55-.79.82-1.39.82h-12.55c-.6,0-.98-.27-1.15-.82-.16-.55-.03-1.04.41-1.48,1.48-1.37,2.4-3.17,2.79-5.41l7.71-43.79c.38-2.24.14-4.04-.74-5.41-.33-.44-.31-.93.04-1.48.35-.55.83-.82,1.44-.82,2.51,0,6.26-.01,11.23-.04,4.97-.03,8.69-.04,11.15-.04,3.5,0,6.38.97,8.65,2.91,2.27,1.94,3.63,4.37,4.1,7.3.46,2.93.38,5.96-.25,9.1-.63,3.14-2.02,6.1-4.18,8.86-2.16,2.76-4.77,4.77-7.83,6.03,2.41,12.68,4.59,20.06,6.56,22.14ZM86.02,62.98h8.69c3.01,0,5.33-1.78,6.97-5.33,1.53-3.28,1.83-6.34.9-9.18-.82-2.35-2.38-3.53-4.67-3.53h-8.77l-3.12,18.04Z"/></g></svg>