<?xml version="1.0" encoding="UTF-8"?><svg id="b" xmlns="http://www.w3.org/2000/svg" width="22.02" height="22.02" viewBox="0 0 22.02 22.02"><g id="c"><path d="M11.01,0C4.93,0,0,4.93,0,11.01s4.93,11.01,11.01,11.01,11.01-4.93,11.01-11.01S17.09,0,11.01,0ZM7.57,18.49c0,.11-.09.2-.2.2h-1.93c-.11,0-.2-.09-.2-.2v-10.09c0-.11.08-.21.2-.21,0,0,0,0,0,0h1.93c.11,0,.2.09.2.2v10.09ZM7.57,5.56c0,.11-.09.2-.2.2h-1.93c-.11,0-.2-.09-.2-.2v-1.87c0-.11.08-.2.19-.2,0,0,0,0,.01,0h1.93c.11,0,.2.09.2.2v1.87ZM12.18,13.81c0,.11-.09.2-.2.2h-1.93c-.11,0-.2-.09-.2-.2v-3.03c0-.11.09-.2.2-.2h1.93c.11,0,.2.09.2.2v3.03ZM12.18,7.98c0,.11-.09.2-.2.2h-1.93c-.11,0-.2-.09-.2-.2V3.7c0-.11.09-.2.2-.2h1.93c.11,0,.2.09.2.2v4.29ZM16.79,12.08c0,.11-.09.2-.2.2h-1.93c-.11,0-.2-.09-.2-.2v-3.12c0-.11.08-.2.19-.2,0,0,0,0,.01,0h1.93c.11,0,.2.09.2.2v3.12ZM16.79,6.13c0,.11-.09.2-.2.2h-1.93c-.11,0-.2-.09-.2-.2v-2.43c0-.11.09-.2.2-.2h1.93c.11,0,.2.09.2.2v2.43Z"/></g></svg>