<?xml version="1.0" encoding="UTF-8"?><svg id="b" xmlns="http://www.w3.org/2000/svg" width="108.23" height="48.56" viewBox="0 0 108.23 48.56"><g id="c"><path d="M9.94,20.56c.77-.85,1.26-1.6,1.51-2.2.27-.73,2.27.66,2,1.38-.99,2.64-2.64,5.69-3.77,8.42,2.44-1.47,5.22-3.41,7.96-5.65.58-.48,2.14,1.31,1.57,1.78-3.27,2.68-7.01,5.4-10.86,7.21-.18.46-.35.92-.52,1.38,3.8,4.26,1.85,16.09-1.85,15.66-.84-.09-1.69-.74-2.25-1.45-2.42-3.05.51-11.1,1.64-14.29-.7-.19-1.21.05-1.91-.12-.74-.25-2.17-1.63-1.18-1.74.63-.07,1.21-.07,1.76,0,.62-.19,1.43-.53,2.39-1,.67-1.73,1.36-3.41,2.01-4.92-2.03,1.4-4.92,3.29-7.26,1.52-3.6-2.71,1.85-9.96,6.83-7.44.68.34,1.34.83,1.95,1.46ZM8.15,20.53c-2.57-1.3-6.2,2.6-6.17,4.97,2.11,0,5.7-2.73,7.19-4.14-.42-.29-.55-.59-1.01-.82ZM5.07,46.78c2.7-.62,3.36-9.74,2.18-12.33-.91,2.6-3.28,9.77-2.18,12.33Z" style="fill:#5affd0;"/><path d="M33.29,24.17c-2.4,2.35-10.52,12.56-13.29,11.62-.59-.2-1.18-.67-1.54-1.2-1.38-2.07,2.91-8.65,4.13-11.07-1.85.56-3.83.81-5.38-.26-2.76-1.89-1.04-6.09,1.11-6.69,1.29-.36,2.76.91,3.01,2.13.15.71-.01,1.78-.68,3.19.68-.19,2.07-.84,2.63-.81.93.06,1.54.55,1.87,1.41.6,1.59-4.56,8.88-5.06,11.55,2.79-1.28,8.99-8.85,11.69-11.5.53-.52,2.05,1.11,1.52,1.63ZM19.31,18.62c-.39.32-.8.85-1.13,1.61-.05.1-.65,1.74-.46,1.91.99-1.51,1.46-2.69,1.59-3.52Z" style="fill:#5affd0;"/><path d="M53.87,22.71c-.65,0-1.76-1.17-1.6-1.66l.39-1.17c-2.37.45-6.7,5.37-6.7,8.41,0,.46.1.88.32,1.23.22.05.46.08.71.08,3.72,0,10.7-5.39,13.78-7.26.07-.04.16-.06.25-.06.64,0,1.66.94,1.66,1.46,0,.11-.04.2-.14.26-3.46,2.1-10.17,7.36-14.38,7.36-.25,0-.5-.02-.73-.06-1.78-.3-3.25-1.87-3.45-3.65-.01-.13-.02-.27-.02-.41,0-3.62,4.71-9.2,8.17-9.2.93,0,1.78.41,2.41,1.37.21.32.29.64.29.96,0,.65-.33,1.31-.56,2.03-.07.23-.22.33-.41.33Z" style="fill:#5affd0;"/><path d="M61.5,21.26c0-1.77,1.73-2.63,3.52-2.63,1.18,0,2.38.37,3.12,1.1.76.74,1.16,1.8,1.16,2.95,0,.72-.15,1.47-.47,2.21,1.51-.29,3.76-1.08,5.62-2.6.07-.06.16-.09.26-.09.58,0,1.5.9,1.5,1.45,0,.11-.04.2-.12.27-2.55,2.07-5.24,2.82-7.39,2.82-.27,0-.53-.01-.78-.03-2.04,3.32-4.3,4.13-5.97,4.13-1.47,0-2.48-.63-2.44-.72-1.05-.75-1.47-1.7-1.47-2.71,0-2.16,1.89-4.58,3.46-5.85-.01-.11-.02-.22-.02-.32ZM60.05,28.46c-.02.32-.03.55,0,.64.27.12.55.18.83.18,1.58,0,3.43-1.69,4.55-3.21-1.19-.54-2.16-1.31-2.85-2.16-1.03,1.1-2.42,3.04-2.54,4.55ZM64.56,22.25c0,.34-.61.42-.95.69.32,1.12,1.41,1.72,2.58,1.97.54-.95,1.15-2.43,1.15-3.56,0-.36-.06-.68-.2-.94-.03-.05-.15-.07-.33-.07-.73,0-2.42.37-2.93,1.05.5.42.68.68.68.86Z" style="fill:#5affd0;"/><path d="M84.74,20c-1.13,2.01-4.98,9.86-8.32,9.86-.44,0-.88-.14-1.29-.44-1.06-.78-1.6-2.23-1.6-3.85,0-.91.17-1.87.51-2.8,1.15-3.1,3.53-5.46,6.58-5.46.81,0,1.67.17,2.56.53C87.6,9.86,91.88.23,91.9.18c.06-.13.17-.18.33-.18.59,0,1.91.88,1.68,1.44-3.03,7.53-12.21,32.11-12.21,38.36,0,.3.06.53.06.77,0,.21-.13.3-.33.3-.54,0-1.57-.66-1.69-1.35-.05-.26-.07-.56-.07-.9,0-3.46,2.43-10.64,5.27-18.49-.07-.05-.13-.09-.2-.14ZM81.96,19.07c-3.62,0-6.64,5.23-6.64,8.09,0,.39.06.74.18,1.02,1.78-.51,4.86-5.35,6.98-9.07-.17-.02-.34-.03-.51-.03Z" style="fill:#5affd0;"/><path d="M91.81,28.2c0,.53.16,1.05.59,1.19.35.12.73.17,1.15.17,3.95,0,10.47-4.9,12.97-7.09.07-.06.15-.08.24-.08.56,0,1.48,1.02,1.48,1.61,0,.12-.04.22-.12.29-.02.02-8,7.01-13.38,7.01-.25,0-.5-.02-.74-.05-2.93-.39-4.03-1.97-4.03-3.89,0-3.75,4.2-8.81,7.31-8.98.04,0,.08,0,.12,0,1.39,0,2.84,1.31,2.84,2.72,0,.35-.09.7-.29,1.05-1.41,2.47-7.64,4.77-7.66,4.77-.27.1-.47.7-.47,1.28ZM98.18,20.23c-1.33.39-3.11,1.99-4.33,3.57,1.63-.83,4-2.24,4.33-3.57Z" style="fill:#5affd0;"/></g></svg>